<?xml version="1.0" encoding="iso-8859-1"?>
<!-- Generator: Adobe Illustrator 19.0.0, SVG Export Plug-In . SVG Version: 6.00 Build 0)  -->
<svg xmlns="http://www.w3.org/2000/svg" xmlns:xlink="http://www.w3.org/1999/xlink" version="1.1" id="Capa_1" x="0px" y="0px" viewBox="0 0 512.043 512.043" style="enable-background:new 0 0 512.043 512.043;" xml:space="preserve" width="512px" height="512px">
<g transform="translate(-1 -1)">
	<g>
		<g>
			<path d="M511.392,151.827C482.954,84.597,429.446,31.089,362.217,2.648c-5.2-2.207-11.075-2.197-16.267,0.029     c-5.146,2.19-9.172,6.39-11.142,11.625l-7.33,19.707l-0.07,0.101c-0.027,0.065-0.015,0.133-0.042,0.197l-44.804,120.458     L10.834,450.64c-13.513,14.678-13.042,37.402,1.066,51.509c14.109,14.106,36.833,14.573,51.509,1.058L359.29,231.479     l120.627-44.871c0.046-0.02,0.096-0.01,0.142-0.031l0.065-0.046l19.702-7.329c5.205-1.976,9.375-5.996,11.542-11.125     C513.592,162.891,513.601,157.02,511.392,151.827z M51.859,490.64c-7.938,7.316-20.238,7.055-27.858-0.592v-0.004     c-7.651-7.619-7.916-19.921-0.6-27.863l158.163-172.217l40.42,44.438L51.859,490.64z M234.557,322.854l-41.399-45.515     l72.282-78.705l49.969,49.969L234.557,322.854z M327.988,237.049l-50.995-50.995l13.249-14.426l52.175,52.171L327.988,237.049z      M356.908,214.152l-12.58-12.58l27.456-13.728c4.2-2.117,5.896-7.232,3.792-11.438c-2.103-4.206-7.213-5.919-11.426-3.829     l-32.546,16.273l-6.41-6.41l16.273-32.546c1.375-2.729,1.187-5.984-0.494-8.536c-1.681-2.552-4.598-4.01-7.647-3.824     c-3.05,0.186-5.767,1.989-7.125,4.726l-13.729,27.458l-12.579-12.578L340.09,49.06c27.269,12.778,52.104,30.207,73.394,51.505     c21.186,21.372,38.566,46.204,51.393,73.427L356.908,214.152z M495.676,161.377c-0.349,0.85-1.029,1.521-1.883,1.858     l-12.864,4.785c-13.726-29.508-32.463-56.413-55.378-79.522c-23.022-23.032-49.936-41.81-79.498-55.468l4.723-12.699     c0.331-0.885,1.012-1.593,1.883-1.958c0.948-0.392,2.015-0.386,2.958,0.017c63.112,26.696,113.343,76.926,140.042,140.037     C496.065,159.368,496.071,160.433,495.676,161.377z" fill="#b5d7d9"/>
			<path d="M256.351,262.298c-0.189-0.542-0.446-1.057-0.767-1.533c-0.341-0.429-0.683-0.854-1.025-1.279     c-2.456-2.416-6.121-3.124-9.3-1.796c-1.045,0.413-2.001,1.023-2.817,1.796c-0.368,0.405-0.71,0.832-1.025,1.279     c-0.324,0.474-0.582,0.99-0.767,1.533c-0.246,0.485-0.42,1.003-0.517,1.538c-0.097,0.565-0.152,1.136-0.166,1.709     c0.03,2.26,0.914,4.424,2.475,6.059c0.817,0.771,1.773,1.379,2.817,1.792c1.026,0.437,2.127,0.669,3.242,0.683     c2.27,0.022,4.453-0.87,6.058-2.475c1.605-1.605,2.497-3.788,2.475-6.058c-0.013-0.573-0.071-1.144-0.175-1.708     C256.769,263.3,256.598,262.781,256.351,262.298z" fill="#b5d7d9"/>
		</g>
	</g>
</g>
<g>
</g>
<g>
</g>
<g>
</g>
<g>
</g>
<g>
</g>
<g>
</g>
<g>
</g>
<g>
</g>
<g>
</g>
<g>
</g>
<g>
</g>
<g>
</g>
<g>
</g>
<g>
</g>
<g>
</g>
</svg>
