<?xml version="1.0" encoding="iso-8859-1"?>
<!-- Generator: Adobe Illustrator 19.0.0, SVG Export Plug-In . SVG Version: 6.00 Build 0)  -->
<svg xmlns="http://www.w3.org/2000/svg" xmlns:xlink="http://www.w3.org/1999/xlink" version="1.1" id="Capa_1" x="0px" y="0px" viewBox="0 0 512 512" style="enable-background:new 0 0 512 512;" xml:space="preserve" width="512px" height="512px">
<g>
	<g>
		<g>
			<path d="M98.133,204.8c-35.346,0-64,28.654-64,64c0,35.346,28.654,64,64,64c35.346,0,64-28.654,64-64     C162.095,233.47,133.464,204.839,98.133,204.8z M98.133,315.733c-25.921,0-46.933-21.013-46.933-46.933     c0-25.921,21.013-46.933,46.933-46.933c25.921,0,46.933,21.013,46.933,46.933C145.036,294.708,124.041,315.703,98.133,315.733z" fill="#628486"/>
			<path d="M98.133,349.867c-35.346,0-64,28.654-64,64c0,35.346,28.654,64,64,64c35.346,0,64-28.654,64-64     C162.095,378.536,133.464,349.905,98.133,349.867z M98.133,460.8c-25.921,0-46.933-21.013-46.933-46.933     s21.013-46.933,46.933-46.933c25.921,0,46.933,21.013,46.933,46.933C145.036,439.774,124.041,460.769,98.133,460.8z" fill="#628486"/>
			<path d="M243.2,204.8c-35.346,0-64,28.654-64,64c0,35.346,28.654,64,64,64s64-28.654,64-64     C307.161,233.47,278.53,204.839,243.2,204.8z M243.2,315.733c-25.921,0-46.933-21.013-46.933-46.933     c0-25.921,21.013-46.933,46.933-46.933s46.933,21.013,46.933,46.933C290.103,294.708,269.108,315.703,243.2,315.733z" fill="#628486"/>
			<path d="M243.2,349.867c-35.346,0-64,28.654-64,64c0,35.346,28.654,64,64,64s64-28.654,64-64     C307.161,378.536,278.53,349.905,243.2,349.867z M243.2,460.8c-25.921,0-46.933-21.013-46.933-46.933     s21.013-46.933,46.933-46.933s46.933,21.013,46.933,46.933C290.103,439.774,269.108,460.769,243.2,460.8z" fill="#628486"/>
			<path d="M401.067,204.8c-35.392,0-64.475,21.438-67.833,49.917c-0.339,1.898-0.085,3.855,0.725,5.604l19.108,38.312     c0.171,0.346,0.366,0.68,0.583,1l13.283,26.637v117.463c0,18.851,15.282,34.133,34.133,34.133     c18.851,0,34.133-15.282,34.133-34.133V326.269l13.267-26.615c0.226-0.325,0.426-0.666,0.6-1.021l19.108-38.313     c0.033-0.07,0.035-0.157,0.067-0.228c0.05-0.091,0.128-0.158,0.175-0.251c1.137-2.299,1.174-4.989,0.1-7.318     C463.948,225.152,435.54,204.8,401.067,204.8z M418.133,443.733c0,9.426-7.641,17.067-17.067,17.067     c-9.426,0-17.067-7.641-17.067-17.067v-76.8h34.133V443.733z M418.133,349.867H384V332.8h34.133V349.867z M434.308,289.996     c-0.225,0.325-0.425,0.666-0.6,1.021l-12.325,24.717H409.6v-25.6c0-4.713-3.82-8.533-8.533-8.533s-8.533,3.82-8.533,8.533v25.6     H380.75l-12.325-24.717c-0.171-0.348-0.369-0.682-0.592-1L350.417,255.1c3.308-18.779,25.092-33.233,50.65-33.233     c25.55,0,47.333,14.454,50.65,33.229L434.308,289.996z" fill="#628486"/>
			<path d="M512,25.6C511.985,11.468,500.532,0.015,486.4,0H25.6C11.468,0.015,0.015,11.468,0,25.6v136.533     c0.02,6.319,2.394,12.404,6.658,17.067C2.394,183.863,0.02,189.948,0,196.267V486.4c0.015,14.132,11.468,25.585,25.6,25.6h460.8     c14.132-0.015,25.585-11.468,25.6-25.6V196.267c-0.02-6.319-2.394-12.404-6.658-17.067c4.265-4.663,6.639-10.748,6.658-17.067     V25.6z M494.933,486.4c-0.005,4.711-3.822,8.529-8.533,8.533H25.6c-4.711-0.005-8.529-3.822-8.533-8.533V196.267     c0.005-4.711,3.822-8.529,8.533-8.533h460.8c4.711,0.005,8.529,3.822,8.533,8.533V486.4z M494.933,162.133     c-0.005,4.711-3.822,8.529-8.533,8.533H25.6c-4.711-0.005-8.529-3.822-8.533-8.533V25.6c0.005-4.711,3.822-8.529,8.533-8.533     h460.8c4.711,0.005,8.529,3.822,8.533,8.533V162.133z" fill="#628486"/>
			<path d="M452.267,34.133H59.733c-14.132,0.015-25.585,11.468-25.6,25.6v76.8c0.015,14.132,11.468,25.585,25.6,25.6h392.533     c14.132-0.015,25.585-11.468,25.6-25.6v-76.8C477.851,45.601,466.399,34.149,452.267,34.133z M460.8,136.533     c-0.005,4.711-3.823,8.529-8.533,8.533H59.733c-4.711-0.005-8.529-3.822-8.533-8.533v-76.8c0.005-4.711,3.822-8.529,8.533-8.533     h392.533c4.711,0.005,8.529,3.822,8.533,8.533V136.533z" fill="#628486"/>
			<path d="M424.166,62.234c-3.341-3.281-8.701-3.256-12.012,0.054S408.82,70.959,412.1,74.3l17.067,17.067     c3.341,3.281,8.701,3.256,12.012-0.054s3.335-8.671,0.054-12.012L424.166,62.234z" fill="#628486"/>
			<path d="M381.5,62.234c-3.341-3.281-8.701-3.256-12.012,0.054s-3.335,8.671-0.054,12.012l59.733,59.733     c3.341,3.281,8.701,3.256,12.012-0.054s3.335-8.671,0.054-12.012L381.5,62.234z" fill="#628486"/>
		</g>
	</g>
</g>
<g>
</g>
<g>
</g>
<g>
</g>
<g>
</g>
<g>
</g>
<g>
</g>
<g>
</g>
<g>
</g>
<g>
</g>
<g>
</g>
<g>
</g>
<g>
</g>
<g>
</g>
<g>
</g>
<g>
</g>
</svg>
