<?xml version="1.0"?>
<svg xmlns="http://www.w3.org/2000/svg" xmlns:xlink="http://www.w3.org/1999/xlink" version="1.1" id="Capa_1" x="0px" y="0px" viewBox="0 0 511.673 511.673" style="enable-background:new 0 0 511.673 511.673;" xml:space="preserve" width="512px" height="512px" class=""><g><g>
	<g>
		<path d="M456.815,375.374l32.184-173.658c1.311-7.824-0.889-15.791-6.018-21.845c-5.129-6.054-12.629-9.53-20.561-9.53H264.863    v-27.718c14.874-2.635,27.836-12.216,35.13-26.18c8.201-15.71,8.084-34.124-0.386-49.368l-35.93-62.877    c-3.189-5.596-12.405-5.596-15.594,0L212.1,67.173c-8.417,15.144-8.533,33.558-0.332,49.269    c7.295,13.964,20.257,23.545,35.13,26.173v27.726H49.236c-7.932,0-15.432,3.476-20.561,9.53    c-5.129,6.054-7.321,14.022-5.991,22.007l32.13,173.343c4.548,27.274,19.839,50.273,41.125,65.016    c-31.291,3.58-55.689,30.214-55.689,62.454c0,4.958,4.024,8.982,8.982,8.982h413.193c4.958,0,8.982-4.024,8.982-8.982    c0-32.236-24.385-58.868-55.677-62.453C437.005,425.511,452.283,402.554,456.815,375.374z M263.759,120.629    c-0.665,1.285-2.668,4.33-6.764,4.743c-0.737,0.072-1.491,0.072-2.228,0c-4.096-0.413-6.099-3.458-6.764-4.743    c-1.482-2.838-1.473-6.108-0.036-8.65l7.914-13.599l7.86,13.501C265.232,114.521,265.241,117.791,263.759,120.629z     M227.748,75.985l28.133-49.224l28.079,49.134c5.461,9.845,5.506,21.89,0.108,32.229c-0.538,1.03-1.127,2.012-1.747,2.961    c-0.549-2.814-1.546-5.562-3.005-8.142l-15.674-26.947c-3.207-5.524-12.315-5.524-15.522,0l-15.737,27.046    c-1.43,2.533-2.412,5.243-2.954,8.026c-0.615-0.944-1.2-1.919-1.735-2.943C222.296,97.785,222.34,85.74,227.748,75.985z     M408.531,457.779c21.684,0,39.837,15.459,44.005,35.93H59.122c4.168-20.471,22.321-35.93,44.005-35.93h49.147h207.109H408.531z     M359.382,439.814H152.274c-39.675,0-73.216-28.411-79.764-67.71l-32.13-173.343c-0.44-2.641,0.269-5.228,2.003-7.276    c1.734-2.057,4.168-3.18,6.854-3.18h197.663v17.965H70.842c-2.668,0-5.201,1.186-6.908,3.234    c-1.707,2.057-2.416,4.761-1.931,7.384l28.25,152.414c5.075,30.451,31.16,52.547,62.024,52.547h207.1    c30.864,0,56.994-22.366,62.105-53.023l16.478-88.879c0.002-0.008,0.003-0.016,0.004-0.024l11.687-63.035    c0.485-2.623-0.216-5.327-1.922-7.384c-1.707-2.048-4.24-3.234-6.907-3.234H264.863v-17.965H462.42c2.686,0,5.12,1.123,6.854,3.18    c1.734,2.048,2.443,4.635,2.03,7.114l-32.184,173.658C432.598,411.402,399.058,439.814,359.382,439.814z M166.003,269.147    c-4.958,0-8.982,4.024-8.982,8.982s4.024,8.982,8.982,8.982H300.74c4.958,0,8.982-4.024,8.982-8.982s-4.024-8.982-8.982-8.982    h-35.877v-44.912h165.151l-8.324,44.912h-67.057c-4.958,0-8.982,4.024-8.982,8.982s4.024,8.982,8.982,8.982h63.727l-14.567,78.596    c-3.692,22.124-22.366,38.175-44.418,38.175h-207.1c-22.043,0-40.682-15.782-44.328-37.69l-14.656-79.082h18.816    c4.958,0,8.982-4.024,8.982-8.982s-4.024-8.982-8.982-8.982H89.963l-8.324-44.912h165.259v44.912H166.003z" data-original="#000000" class="active-path" data-old_color="#000000" fill="#628484"/>
	</g>
</g></g> </svg>
