<?xml version="1.0" encoding="iso-8859-1"?>
<!-- Generator: Adobe Illustrator 19.0.0, SVG Export Plug-In . SVG Version: 6.00 Build 0)  -->
<svg xmlns="http://www.w3.org/2000/svg" xmlns:xlink="http://www.w3.org/1999/xlink" version="1.1" id="Capa_1" x="0px" y="0px" viewBox="0 0 512 512" style="enable-background:new 0 0 512 512;" xml:space="preserve" width="512px" height="512px">
<g>
	<g>
		<g>
			<path d="M281.6,166.4c4.71,0,8.533-3.823,8.533-8.533c0-4.71-3.823-8.533-8.533-8.533c-60.382,0-98.33-18.97-109.107-31.71     c-3.038-3.601-8.422-4.045-12.023-1.007c-3.601,3.038-4.045,8.422-1.007,12.023C174.839,146.825,219.614,166.4,281.6,166.4z" fill="#FFFFFF"/>
			<path d="M238.933,302.933c4.71,0,8.533-3.823,8.533-8.533c0-4.71-3.823-8.533-8.533-8.533     c-79.616,0-143.121-31.761-152.491-61.423c-1.417-4.497-6.238-6.989-10.709-5.572c-4.489,1.425-6.98,6.212-5.564,10.709     C81.562,265.634,147.797,302.933,238.933,302.933z" fill="#FFFFFF"/>
			<path d="M256,430.933c-118.485,0-189.867-42.061-202.709-71.927c-1.869-4.326-6.886-6.34-11.213-4.463     c-4.326,1.86-6.332,6.878-4.463,11.204C54.758,405.623,137.131,448,256,448c4.71,0,8.533-3.823,8.533-8.533     S260.71,430.933,256,430.933z" fill="#FFFFFF"/>
			<path d="M434.16,254.447c6.219-11.563,9.574-23.933,9.574-36.847c0-20.058-8.358-39.552-24.286-56.869     c15.433-13.101,24.286-28.671,24.286-45.531c0-47.846-71.219-85.333-162.133-85.333S119.467,67.354,119.467,115.2     c0,1.685,0.098,3.356,0.272,5.014c-53.747,22.275-85.606,58.315-85.606,97.386c0,18.384,6.787,35.669,18.989,51.082     C18.781,291.642,0,320.184,0,349.867c0,74.163,112.452,132.267,256,132.267s256-58.103,256-132.267     C512,313.544,483.767,279.123,434.16,254.447z M281.6,46.933c78.635,0,145.067,31.266,145.067,68.267     c0,37-66.432,68.267-145.067,68.267S136.533,152.201,136.533,115.2C136.533,78.199,202.965,46.933,281.6,46.933z      M124.472,136.735c17.697,37.096,80.398,63.798,157.128,63.798c50.192,0,94.373-11.429,123.889-29.716     c13.866,14.509,21.177,30.567,21.177,46.783c0,56.465-84.215,102.4-187.733,102.4S51.2,274.065,51.2,217.6     C51.2,186.094,78.414,156.265,124.472,136.735z M256,465.067c-129.519,0-238.933-52.753-238.933-115.2     c0-24.386,16.907-48.527,47.782-68.481c35.833,33.686,99.738,55.681,174.084,55.681c83.251,0,153.412-27.578,185.72-68.27     c44.759,21.738,70.28,51.039,70.28,81.07C494.933,412.314,385.519,465.067,256,465.067z" fill="#FFFFFF"/>
		</g>
	</g>
</g>
<g>
</g>
<g>
</g>
<g>
</g>
<g>
</g>
<g>
</g>
<g>
</g>
<g>
</g>
<g>
</g>
<g>
</g>
<g>
</g>
<g>
</g>
<g>
</g>
<g>
</g>
<g>
</g>
<g>
</g>
</svg>
