<?xml version="1.0" encoding="iso-8859-1"?>
<!-- Generator: Adobe Illustrator 19.0.0, SVG Export Plug-In . SVG Version: 6.00 Build 0)  -->
<svg xmlns="http://www.w3.org/2000/svg" xmlns:xlink="http://www.w3.org/1999/xlink" version="1.1" id="Capa_1" x="0px" y="0px" viewBox="0 0 503.705 503.705" style="enable-background:new 0 0 503.705 503.705;" xml:space="preserve" width="512px" height="512px">
<g>
	<g>
		<g>
			<path d="M322.545,347.787c-13.123-6.119-44.652-20.344-53.906-20.344c-6.179,0.338-12.077,2.695-16.787,6.709     c-4.71-4.014-10.608-6.371-16.787-6.709c-9.254,0-40.783,14.225-53.906,20.344c-2.196,1.023-3.843,2.946-4.517,5.273     c-0.674,2.327-0.309,4.832,1.001,6.871c1.127,1.758,28.189,43.053,74.209,43.053s73.082-41.295,74.209-43.053     c1.31-2.038,1.675-4.543,1.001-6.871C326.388,350.733,324.742,348.811,322.545,347.787z M251.853,386.197     c-21.072-1.196-40.666-11.209-53.979-27.586c11.974-5.824,24.415-10.634,37.193-14.381c4.098,1.16,7.734,3.565,10.406,6.881     c1.643,1.783,3.957,2.797,6.381,2.797c2.424,0,4.738-1.014,6.381-2.797c2.658-3.278,6.243-5.677,10.287-6.885     c12.834,3.729,25.326,8.547,37.34,14.402C292.566,375.04,272.944,385.056,251.853,386.197z" fill="#FFFFFF"/>
			<path d="M210.873,289.919c-2.182,4.09-0.635,9.175,3.455,11.357c4.09,2.182,9.175,0.635,11.357-3.455     c5.615-10.529,11.295-10.164,15.574-8.676c6.862,2.362,14.317,2.363,21.18,0.004c4.307-1.484,9.963-1.852,15.582,8.672     c2.182,4.09,7.266,5.637,11.357,3.455c4.09-2.182,5.637-7.267,3.455-11.357c-11.803-22.135-29.016-19.004-35.885-16.635     c-3.303,1.142-6.894,1.141-10.197-0.004C239.885,270.902,222.677,267.779,210.873,289.919z" fill="#FFFFFF"/>
			<path d="M201.025,255.742l16.324-11.434c4.411-3.072,7.715-7.484,9.422-12.582l6.049-17.947c1.746-5.218,1.746-10.863,0-16.082     l-6.049-17.947c-1.707-5.096-5.009-9.508-9.418-12.582l-16.328-11.431c-4.228-2.974-9.273-4.566-14.443-4.558h-20.541     c-5.169-0.008-10.213,1.582-14.443,4.553l-16.324,11.434c-4.411,3.072-7.715,7.484-9.422,12.582l-6.049,17.947     c-1.746,5.219-1.746,10.863,0,16.082l6.049,17.947c1.707,5.096,5.009,9.508,9.418,12.582l16.328,11.431     c4.228,2.974,9.273,4.566,14.443,4.558h20.541C191.751,260.304,196.795,258.713,201.025,255.742z M161.23,241.988l-16.332-11.434     c-1.462-1.029-2.56-2.496-3.135-4.188l-6.049-17.951c-0.586-1.737-0.586-3.619,0-5.357l6.049-17.947     c0.576-1.694,1.675-3.161,3.139-4.188l16.328-11.438c1.409-0.989,3.09-1.519,4.812-1.517h20.541     c1.722-0.003,3.403,0.528,4.811,1.52l16.332,11.434c1.462,1.029,2.56,2.496,3.135,4.188l6.049,17.951     c0.586,1.737,0.586,3.619,0,5.357l-6.049,17.947c-0.576,1.694-1.675,3.161-3.139,4.188l-16.328,11.438     c-1.409,0.989-3.09,1.519-4.812,1.517h-20.541C164.319,243.512,162.638,242.98,161.23,241.988z" fill="#FFFFFF"/>
			<path d="M170.378,178.82l-8.393,8.393c-2.4,2.4-3.117,6.01-1.819,9.146s4.359,5.181,7.753,5.182     c2.227,0.003,4.362-0.883,5.934-2.459l8.393-8.393c3.227-3.286,3.203-8.558-0.054-11.815     C178.936,175.618,173.663,175.594,170.378,178.82z" fill="#FFFFFF"/>
			<path d="M173.852,220.787l-8.393-8.393c-3.283-3.242-8.569-3.226-11.831,0.037c-3.263,3.263-3.279,8.548-0.037,11.831     l8.393,8.393c1.574,1.574,3.708,2.459,5.934,2.459c2.226,0,4.361-0.885,5.934-2.459h0c1.574-1.574,2.459-3.708,2.459-5.934     C176.311,224.496,175.427,222.361,173.852,220.787z" fill="#FFFFFF"/>
			<path d="M193.099,218.328c2.226,0,4.361-0.885,5.934-2.459l8.393-8.393c3.242-3.283,3.225-8.569-0.037-11.831     c-3.263-3.263-8.548-3.279-11.831-0.037l-8.393,8.393c-1.574,1.574-2.459,3.708-2.459,5.934s0.884,4.361,2.459,5.934     C188.738,217.444,190.873,218.328,193.099,218.328z" fill="#FFFFFF"/>
			<path d="M377.853,179.751c-1.707-5.096-5.009-9.508-9.418-12.582l-16.328-11.431c-4.228-2.974-9.273-4.566-14.443-4.558h-20.541     c-5.169-0.008-10.213,1.582-14.443,4.553l-16.324,11.434c-4.411,3.072-7.715,7.484-9.422,12.582l-6.049,17.947     c-1.746,5.219-1.746,10.863,0,16.082l6.049,17.947c1.707,5.096,5.009,9.508,9.418,12.582l16.328,11.43     c4.228,2.974,9.273,4.566,14.443,4.558h20.541c5.169,0.008,10.213-1.582,14.443-4.553l16.324-11.434     c4.411-3.072,7.715-7.484,9.422-12.582l6.049-17.947c1.746-5.218,1.746-10.863,0-16.082L377.853,179.751z M367.992,208.418     l-6.049,17.947c-0.576,1.694-1.675,3.161-3.139,4.188l-16.328,11.438c-1.409,0.989-3.09,1.519-4.812,1.517h-20.541     c-1.722,0.003-3.403-0.528-4.811-1.521l-16.332-11.434c-1.462-1.029-2.56-2.496-3.135-4.188l-6.049-17.951     c-0.586-1.738-0.586-3.619,0-5.357h0l6.049-17.947c0.576-1.694,1.675-3.161,3.139-4.188l16.328-11.438     c1.409-0.989,3.09-1.519,4.812-1.517h20.541c1.722-0.003,3.403,0.528,4.811,1.52l16.332,11.434     c1.462,1.029,2.56,2.496,3.135,4.188l6.049,17.951C368.578,204.799,368.578,206.681,367.992,208.418z" fill="#FFFFFF"/>
			<path d="M341.668,199.029c3.257-3.257,3.28-8.529,0.054-11.815l-8.393-8.393c-3.286-3.227-8.558-3.203-11.815,0.054     c-3.257,3.257-3.28,8.529-0.054,11.815l8.393,8.393C333.139,202.309,338.411,202.285,341.668,199.029z" fill="#FFFFFF"/>
			<path d="M338.246,212.394l-8.393,8.393c-2.152,2.114-3.005,5.22-2.233,8.136c0.772,2.916,3.049,5.193,5.965,5.965     c2.916,0.772,6.022-0.081,8.136-2.233l8.393-8.393c3.227-3.286,3.203-8.558-0.053-11.815     C346.805,209.191,341.532,209.167,338.246,212.394z" fill="#FFFFFF"/>
			<path d="M308.148,195.607c-3.286-3.227-8.558-3.203-11.815,0.054c-3.256,3.256-3.28,8.529-0.054,11.815l8.393,8.393     c3.286,3.227,8.558,3.203,11.815-0.054c3.256-3.257,3.28-8.529,0.053-11.815L308.148,195.607z" fill="#FFFFFF"/>
			<path d="M452.808,114.783C410.352-4.089,260.962-0.247,251.872,0.092c-8.525-0.346-158.429-4.43-200.974,114.691     C6.73,238.464,26.381,324.226,112.746,384.681c1.407,0.988,3.084,1.517,4.803,1.516c0.106,0,0.2-0.069,0.306-0.073     c1.088,1.348,2.171,2.707,3.272,4.028c0.177,0.267,0.369,0.524,0.574,0.771c6.746,8.033,13.898,15.857,20.816,23.426     c1.072,1.173,2.137,2.363,3.21,3.538c2.537,26.583,0.295,59.209-23.214,69.769c-3.612,1.621-5.6,5.544-4.771,9.415     s4.251,6.636,8.209,6.634h251.803c3.961,0,7.383-2.769,8.21-6.643c0.827-3.874-1.167-7.798-4.784-9.415     c-23.819-10.651-25.8-44.019-22.981-71.207c0.672-0.735,1.343-1.486,2.014-2.219c7.451-8.135,15.152-16.549,22.34-25.295     c0.813-0.988,1.612-2.009,2.418-3.013c2.07,0.726,4.373,0.252,5.988-1.233C477.324,324.226,496.976,238.464,452.808,114.783z      M149.345,486.919c9.782-14.852,14.68-32.389,14.008-50.161c27.601,27.322,56.923,41.421,87.41,41.767h1.184     c30.844-0.352,60.554-14.902,88.488-42.997c-0.868,18.168,4.005,36.148,13.93,51.39H149.345z M369.59,378.263     c-6.91,8.406-14.123,16.283-21.758,24.623c-3.697,4.037-7.406,8.09-11.102,12.229c-27.201,30.607-55.791,46.291-84.877,46.623     h-0.996c-29.18-0.332-57.77-16.016-84.992-46.639c-1.99-2.228-3.997-4.412-6-6.612c-0.074-0.078-0.136-0.16-0.214-0.235     c-1.584-1.74-3.163-3.498-4.746-5.231c-6.606-7.226-13.43-14.693-19.787-22.229c-0.17-0.257-0.355-0.503-0.553-0.738     c-29.742-35.52-47.828-72.795-39.402-139.275c7.316-58.053,24.914-138.008,92.971-161.996     c20.4-7.116,41.786-11.002,63.385-11.517c21.447,0.55,42.677,4.433,62.931,11.508c68.09,23.967,85.684,103.934,92.996,162.008     C415.783,306.587,398.345,343.332,369.59,378.263z M410.266,346.76c12.784-26.8,19.843-60.648,13.837-108.079     c-7.869-62.484-27.217-148.688-104.107-175.75c-22.144-7.714-45.358-11.913-68.801-12.446l-0.002-0.025l-0.213,0.013     l-0.218-0.013c-0.066,0-0.117,0.036-0.183,0.037c-23.171,0.611-46.107,4.808-67.993,12.442     C105.73,90.025,86.377,176.21,78.508,238.677c-5.835,46.045,0.767,79.434,13.033,106.084     c-52.147-53.564-59.995-125.872-24.833-224.33C106.033,10.324,249.955,16.812,251.394,16.874     c0.164,0.008,0.302-0.067,0.464-0.067c0.159,0.001,0.293,0.074,0.454,0.067c1.467-0.057,145.365-6.553,184.684,103.557     C472.594,220.105,464.17,293.005,410.266,346.76z" fill="#FFFFFF"/>
			<path d="M163.25,125.128L163.25,125.128c1.16-0.566,28.615-13.664,49.095,6.807c3.285,3.234,8.563,3.213,11.822-0.046     s3.28-8.538,0.046-11.822c-29.123-29.131-66.852-10.766-68.443-9.967c-4.15,2.065-5.84,7.104-3.775,11.254     C154.061,125.503,159.1,127.193,163.25,125.128z" fill="#FFFFFF"/>
			<path d="M285.427,134.394c2.227,0.003,4.362-0.883,5.934-2.459c20.439-20.439,47.816-7.426,49.086-6.811     c4.145,2.043,9.162,0.352,11.223-3.784c2.061-4.136,0.391-9.16-3.736-11.24c-1.594-0.795-39.324-19.152-68.443,9.967     c-2.4,2.401-3.118,6.01-1.819,9.146C278.972,132.349,282.032,134.394,285.427,134.394z" fill="#FFFFFF"/>
		</g>
	</g>
</g>
<g>
</g>
<g>
</g>
<g>
</g>
<g>
</g>
<g>
</g>
<g>
</g>
<g>
</g>
<g>
</g>
<g>
</g>
<g>
</g>
<g>
</g>
<g>
</g>
<g>
</g>
<g>
</g>
<g>
</g>
</svg>
