<?xml version="1.0" encoding="iso-8859-1"?>
<!-- Generator: Adobe Illustrator 19.0.0, SVG Export Plug-In . SVG Version: 6.00 Build 0)  -->
<svg xmlns="http://www.w3.org/2000/svg" xmlns:xlink="http://www.w3.org/1999/xlink" version="1.1" id="Capa_1" x="0px" y="0px" viewBox="0 0 512 512" style="enable-background:new 0 0 512 512;" xml:space="preserve" width="512px" height="512px">
<g>
	<g>
		<g>
			<path d="M503.467,243.2c-28.237,0-51.2-22.963-51.2-51.2c0-4.71-3.823-8.533-8.533-8.533h-14.319     c-13.562-9.735-85.558-61.25-131.034-90.209C295.951,72.02,277.877,55.467,256,55.467c-21.877,0-39.951,16.553-42.38,37.791     c-45.476,28.96-117.472,80.475-131.034,90.209H68.267c-4.71,0-8.533,3.823-8.533,8.533c0,28.237-22.963,51.2-51.2,51.2     c-4.71,0-8.533,3.823-8.533,8.533v136.533c0,4.71,3.823,8.533,8.533,8.533c28.237,0,51.2,22.963,51.2,51.2     c0,4.71,3.823,8.533,8.533,8.533h375.467c4.71,0,8.533-3.823,8.533-8.533c0-28.237,22.963-51.2,51.2-51.2     c4.71,0,8.533-3.823,8.533-8.533V251.733C512,247.023,508.177,243.2,503.467,243.2z M256,72.533c14.114,0,25.6,11.486,25.6,25.6     s-11.486,25.6-25.6,25.6s-25.6-11.486-25.6-25.6S241.886,72.533,256,72.533z M215.725,112.193     C221.55,128.83,237.399,140.8,256,140.8c18.602,0,34.451-11.97,40.276-28.609c33.38,21.641,77.732,52.789,103.763,71.275H111.963     C137.995,164.982,182.346,133.837,215.725,112.193z M494.933,380.262c-30.831,3.866-55.339,28.373-59.204,59.204H76.271     c-3.866-30.831-28.373-55.339-59.204-59.204V259.738c30.831-3.866,55.339-28.373,59.204-59.204h359.458     c3.866,30.831,28.373,55.339,59.204,59.204V380.262z" fill="#FFFFFF"/>
			<path d="M423.968,223.019c-1.28-3.268-4.429-5.419-7.945-5.419H95.972c-3.507,0-6.665,2.15-7.945,5.419     c-8.661,22.135-26.334,39.808-48.469,48.478c-3.277,1.28-5.427,4.437-5.427,7.953v81.101c0,3.516,2.15,6.673,5.427,7.953     c22.135,8.67,39.808,26.342,48.469,48.478c1.28,3.268,4.437,5.419,7.945,5.419h320.051c3.516,0,6.664-2.15,7.945-5.419     c8.67-22.135,26.342-39.808,48.478-48.478c3.268-1.28,5.419-4.437,5.419-7.953V279.45c0-3.516-2.15-6.673-5.419-7.953     C450.31,262.827,432.637,245.154,423.968,223.019z M460.797,354.918c-22.221,10.223-40.192,28.194-50.406,50.415H101.612     c-10.223-22.221-28.186-40.192-50.415-50.415v-69.837c22.229-10.223,40.192-28.194,50.415-50.415h308.779     c10.214,22.221,28.186,40.192,50.406,50.415V354.918z" fill="#FFFFFF"/>
			<path d="M162.133,311.467H153.6c-9.412,0-17.067-7.654-17.067-17.067c0-9.412,7.654-17.067,17.067-17.067h25.6     c4.71,0,8.533-3.823,8.533-8.533s-3.823-8.533-8.533-8.533h-25.6c-18.825,0-34.133,15.309-34.133,34.133     s15.309,34.133,34.133,34.133h8.533c9.412,0,17.067,7.654,17.067,17.067c0,9.412-7.654,17.067-17.067,17.067H128     c-4.71,0-8.533,3.823-8.533,8.533s3.823,8.533,8.533,8.533h34.133c18.825,0,34.133-15.309,34.133-34.133     C196.267,326.775,180.958,311.467,162.133,311.467z" fill="#FFFFFF"/>
			<path d="M264.533,260.267H230.4c-4.71,0-8.533,3.823-8.533,8.533v102.4c0,4.71,3.823,8.533,8.533,8.533s8.533-3.823,8.533-8.533     V320h25.6c16.469,0,29.867-13.397,29.867-29.867C294.4,273.664,281.003,260.267,264.533,260.267z M264.533,302.933h-25.6v-25.6     h25.6c7.057,0,12.8,5.743,12.8,12.8S271.59,302.933,264.533,302.933z" fill="#FFFFFF"/>
			<path d="M374.122,325.32c-0.026-0.064-0.052-0.127-0.079-0.19l-24.799-59.518c-0.119-0.295-0.255-0.584-0.407-0.864     c-0.024-0.044-0.052-0.085-0.076-0.129c-0.111-0.197-0.225-0.391-0.352-0.579c-0.056-0.083-0.117-0.16-0.175-0.241     c-0.103-0.142-0.205-0.284-0.317-0.42c-0.08-0.097-0.166-0.187-0.249-0.28c-0.1-0.111-0.197-0.223-0.303-0.329     c-0.105-0.105-0.217-0.203-0.327-0.302c-0.093-0.084-0.183-0.17-0.28-0.249c-0.144-0.119-0.294-0.227-0.445-0.335     c-0.071-0.051-0.138-0.105-0.211-0.154c-0.947-0.639-2.013-1.084-3.135-1.304c-0.041-0.008-0.082-0.011-0.123-0.019     c-0.228-0.041-0.457-0.078-0.688-0.1c-0.116-0.011-0.232-0.012-0.349-0.019c-0.157-0.009-0.314-0.021-0.473-0.021     c-0.158,0-0.314,0.012-0.471,0.021c-0.117,0.007-0.234,0.007-0.351,0.019c-0.223,0.022-0.443,0.057-0.663,0.096     c-0.05,0.009-0.101,0.013-0.151,0.023c-0.848,0.167-1.664,0.462-2.421,0.872c-0.042,0.023-0.081,0.049-0.122,0.072     c-0.197,0.111-0.391,0.225-0.578,0.351c-0.099,0.067-0.192,0.14-0.288,0.21c-0.124,0.091-0.25,0.18-0.37,0.279     c-0.115,0.094-0.222,0.196-0.332,0.296c-0.093,0.085-0.189,0.167-0.278,0.257c-0.118,0.118-0.227,0.242-0.337,0.366     c-0.073,0.082-0.148,0.16-0.218,0.245c-0.119,0.145-0.228,0.296-0.338,0.448c-0.052,0.072-0.107,0.141-0.157,0.216     c-0.129,0.192-0.247,0.391-0.36,0.593c-0.022,0.04-0.048,0.077-0.07,0.118c-0.152,0.281-0.288,0.57-0.407,0.865l-24.799,59.518     c-0.028,0.063-0.053,0.127-0.08,0.191l-17.749,42.599c-1.818,4.352,0.239,9.344,4.591,11.153     c1.075,0.452,2.185,0.666,3.277,0.666c3.345,0,6.519-1.98,7.876-5.257l15.589-37.414h38.411l15.589,37.414     c1.357,3.277,4.531,5.257,7.876,5.257c1.092,0,2.202-0.213,3.277-0.666c4.352-1.809,6.409-6.801,4.591-11.153L374.122,325.32z      M329.239,320l12.094-29.026L353.428,320H329.239z" fill="#FFFFFF"/>
		</g>
	</g>
</g>
<g>
</g>
<g>
</g>
<g>
</g>
<g>
</g>
<g>
</g>
<g>
</g>
<g>
</g>
<g>
</g>
<g>
</g>
<g>
</g>
<g>
</g>
<g>
</g>
<g>
</g>
<g>
</g>
<g>
</g>
</svg>
