<?xml version="1.0"?>
<svg xmlns="http://www.w3.org/2000/svg" xmlns:xlink="http://www.w3.org/1999/xlink" version="1.1" id="Capa_1" x="0px" y="0px" viewBox="0 0 511.922 511.922" style="enable-background:new 0 0 511.922 511.922;" xml:space="preserve" width="512px" height="512px" class=""><g><g transform="translate(-1)">
	<g>
		<g>
			<path d="M76.801,276.74c-17.855-0.027-33.24,12.566-36.743,30.074c-3.503,17.508,5.853,35.051,22.344,41.896     c16.49,6.845,35.52,1.084,45.445-13.758c9.925-14.842,7.98-34.629-4.645-47.254C96.218,280.666,86.712,276.72,76.801,276.74z      M91.135,328.432L91.135,328.432c-2.754,2.767-6.263,4.661-10.087,5.445c-0.125,0.027-0.242,0.084-0.367,0.108     c-0.807,0.127-1.621,0.205-2.438,0.234c-0.481,0.034-0.956,0.137-1.439,0.137c-0.495,0-0.984-0.105-1.478-0.141     c-0.803-0.029-1.604-0.105-2.398-0.229c-0.369-0.071-0.721-0.229-1.086-0.321c-0.908-0.201-1.801-0.465-2.672-0.79     c-0.421-0.171-0.806-0.44-1.217-0.64c-0.796-0.353-1.567-0.758-2.309-1.212c-5.083-3.354-8.39-8.816-9.005-14.875     s1.525-12.074,5.83-16.383c8.011-7.683,20.656-7.683,28.667,0c3.814,3.795,5.958,8.953,5.958,14.333     S94.949,324.637,91.135,328.432z" data-original="#000000" class="active-path" data-old_color="#000000" fill="#628486"/>
			<path d="M172.601,409.898L172.601,409.898c-10.688,10.672-13.889,26.734-8.108,40.687c5.781,13.953,19.404,23.045,34.508,23.03     l0.004,0l0.004,0c3.729-0.057,7.429-0.67,10.977-1.82c5.811-1.718,11.108-4.843,15.423-9.097     c9.438-9.432,13.125-23.184,9.672-36.072c-3.453-12.888-13.521-22.955-26.41-26.406     C195.783,396.77,182.032,400.459,172.601,409.898z M213.343,450.632L213.343,450.632c-7.917,7.913-20.749,7.912-28.665-0.001     c-7.916-7.914-7.921-20.746-0.01-28.665c8.013-7.688,20.662-7.688,28.675,0C221.243,429.888,221.243,442.709,213.343,450.632z" data-original="#000000" class="active-path" data-old_color="#000000" fill="#628486"/>
			<path d="M339.902,173.165c-3.421-3.158-8.695-3.158-12.117,0c-0.772,0.816-1.38,1.772-1.792,2.817     c-0.911,2.065-0.911,4.418,0,6.483c0.434,1.034,1.04,1.986,1.792,2.817c2.441,2.444,6.125,3.154,9.3,1.792     c2.143-0.777,3.831-2.465,4.608-4.608c0.911-2.065,0.911-4.418,0-6.483C341.262,174.947,340.656,173.994,339.902,173.165z" data-original="#000000" class="active-path" data-old_color="#000000" fill="#628486"/>
			<path d="M512.862,7.657c-0.045-0.338-0.111-0.673-0.196-1.003c-0.13-0.624-0.332-1.231-0.602-1.809     c-0.092-0.183-0.235-0.336-0.341-0.513c-0.314-0.641-0.711-1.238-1.18-1.775l-0.066-0.067c-0.744-0.718-1.616-1.289-2.571-1.685     c-0.19-0.082-0.377-0.13-0.572-0.198c-0.788-0.281-1.614-0.442-2.45-0.477c-0.209-0.009-0.407-0.032-0.618-0.026     c-1.058,0.008-2.106,0.213-3.09,0.603c-0.15,0.062-0.265,0.178-0.41,0.248l-0.006,0.002     C345.16,75.34,254.901,164.523,254.01,165.415c-0.307,0.304-0.589,0.633-0.842,0.983L142.751,276.815     c-13.463-23.755-38.646-38.449-65.95-38.483c-34.298-0.014-64.327,23.014-73.21,56.141s5.598,68.09,35.302,85.237     c29.704,17.146,67.222,12.199,91.466-12.061l156.15-156.142c3.044-3.058,7.633-3.975,11.619-2.322     c3.985,1.653,6.578,5.549,6.565,9.864c0.016,2.827-1.1,5.543-3.1,7.542L145.451,382.74     c-22.923,22.977-28.635,58.017-14.194,87.085c14.44,29.067,45.814,45.684,77.973,41.297     c32.159-4.387,57.936-28.799,64.063-60.672c6.128-31.873-8.76-64.103-37-80.101L347.61,259.023     c0.892-0.892,90.15-91.083,164.533-246.683c0.035-0.073,0.035-0.154,0.069-0.228c0.182-0.457,0.323-0.929,0.421-1.411     c0.122-0.437,0.209-0.884,0.259-1.335C512.941,8.797,512.931,8.224,512.862,7.657z M335.543,246.957L215.51,366.99     c-2.077,2.077-2.939,5.075-2.284,7.938s2.736,5.187,5.509,6.154c8.203,2.858,15.646,7.552,21.758,13.725     c16.797,16.783,21.827,42.033,12.745,63.972s-30.488,36.245-54.232,36.245s-45.15-14.306-54.232-36.245     s-4.052-47.189,12.745-63.972l156.142-156.15c10.829-10.829,10.829-28.387,0-39.217c-10.829-10.829-28.387-10.829-39.217,0     l-156.15,156.142c-16.783,16.797-42.033,21.827-63.972,12.745c-21.939-9.082-36.245-30.488-36.245-54.232     s14.306-45.15,36.245-54.232s47.189-4.052,63.972,12.745c6.167,6.117,10.861,13.558,13.725,21.758     c0.967,2.773,3.291,4.854,6.154,5.509c2.863,0.655,5.861-0.208,7.938-2.284l120.033-120.033c0.28-0.277,0.54-0.575,0.775-0.892     C325.366,123.369,390.336,77.7,460.274,40.75L353.41,147.59c-2.188,2.149-3.055,5.307-2.27,8.271     c0.785,2.965,3.1,5.28,6.065,6.065c2.965,0.785,6.122-0.082,8.271-2.27L472.414,52.744     C405.658,176.035,336.316,246.175,335.543,246.957z" data-original="#000000" class="active-path" data-old_color="#000000" fill="#628486"/>
		</g>
	</g>
</g></g> </svg>
